# File created by Blade
# Date/Time:  Fri Jan 16 19:18:57 2015
# Frame Rate: 120.000 fps
#------------------------------------------------------
:FULLY-SPECIFIED
:DEGREES
657
root 19.729027 35.750405 -22.159971 -166.892010 -0.782801 -178.773068
Spine -26.688035 -4.414142 3.426667
Head 17.453167 -4.364198 17.088819
LeftShoulder -27.836838 -67.616920 82.997851
LeftArm 64.931202 -48.292913 -26.004678
LeftForeArm -65.868390 -0.000000 104.213166
LeftHand 7.484525 0.000000 0.790081
LeftHandThumb1 -26.253704 0.000000 33.147579
RightShoulder -15.033461 16.822880 -38.289850
RightArm 30.361620 75.356252 0.966764
RightForeArm 43.937721 -0.000000 88.455382
RightHand 7.314168 -0.000000 12.698337
RightHandThumb1 -24.326973 -0.000000 -32.862282
LeftUpLeg -4.285419 9.368670 -0.545185
LeftLeg -6.914354 -0.000000 0.000000
LeftFoot -19.430274 25.722405 -15.561087
LeftToeBase 24.920410 -0.000000 -0.000000
RightUpLeg -4.976933 -5.733061 0.929704
RightLeg -3.567717 -0.000000 0.000000
RightFoot -20.445047 -24.052330 19.371604
RightToeBase 22.575764 -0.000000 -0.000000
658
root 19.728799 35.749815 -22.158234 -166.884371 -0.814547 -178.764302
Spine -26.679910 -4.476121 3.427611
Head 17.454022 -4.371884 17.280150
LeftShoulder -27.945889 -67.689659 83.226700
LeftArm 65.151521 -48.133524 -26.228720
LeftForeArm -65.885343 -0.000000 104.251467
LeftHand 7.494591 -0.000000 0.744706
LeftHandThumb1 -26.253704 0.000000 33.147579
RightShoulder -15.099142 16.726158 -38.097493
RightArm 30.338199 75.377123 1.029903
RightForeArm 43.969811 -0.000000 88.574830
RightHand 7.257052 -0.000000 12.707534
RightHandThumb1 -24.326973 -0.000000 -32.862282
LeftUpLeg -4.301774 9.335212 -0.524719
LeftLeg -6.898760 -0.000000 0.000000
LeftFoot -19.429678 25.686727 -15.517857
LeftToeBase 24.913103 -0.000000 -0.000000
RightUpLeg -4.978984 -5.741606 0.942398
RightLeg -3.575931 -0.000000 0.000000
RightFoot -20.441992 -24.065052 19.369638
RightToeBase 22.484460 -0.000000 -0.000000
659
root 19.727636 35.749029 -22.157234 -166.877819 -0.845862 -178.753537
Spine -26.668586 -4.532914 3.422268
Head 17.422369 -4.421401 17.456528
LeftShoulder -28.217042 -67.848586 83.682296
LeftArm 65.181129 -47.901214 -26.316580
LeftForeArm -65.919070 -0.000000 104.322969
LeftHand 7.512169 -0.000000 0.701561
LeftHandThumb1 -26.253704 0.000000 33.147579
RightShoulder -15.152267 16.688060 -37.916452
RightArm 30.176486 75.323019 0.945464
RightForeArm 43.860308 0.000000 88.728822
RightHand 7.136057 0.000000 12.465012
RightHandThumb1 -24.326973 -0.000000 -32.862282
LeftUpLeg -4.319138 9.305802 -0.516314
LeftLeg -6.899235 -0.000000 0.000000
LeftFoot -19.446725 25.741734 -15.504311
LeftToeBase 24.932993 -0.000000 -0.000000
RightUpLeg -4.986213 -5.790966 0.960183
RightLeg -3.571141 -0.000000 0.000000
RightFoot -20.444972 -24.036352 19.370675
RightToeBase 22.545198 -0.000000 -0.000000
660
root 19.726874 35.749306 -22.155462 -166.878782 -0.868211 -178.742742
Spine -26.645890 -4.567979 3.411362
Head 17.448308 -4.443808 17.660647
LeftShoulder -28.422048 -67.958489 84.005479
LeftArm 65.301765 -47.705648 -26.429971
LeftForeArm -65.881507 -0.000000 104.343979
LeftHand 7.532219 0.000000 0.607044
LeftHandThumb1 -26.253704 0.000000 33.147579
RightShoulder -15.214259 16.653923 -37.734072
RightArm 29.874395 75.254383 0.677532
RightForeArm 43.933844 -0.000000 88.837949
RightHand 7.081017 -0.000000 12.349348
RightHandThumb1 -24.326973 -0.000000 -32.862282
LeftUpLeg -4.328211 9.293923 -0.498418
LeftLeg -6.882171 -0.000000 0.000000
LeftFoot -19.427367 25.705354 -15.452016
LeftToeBase 24.945270 -0.000000 -0.000000
RightUpLeg -4.976634 -5.812880 0.974168
RightLeg -3.592568 -0.000000 0.000000
RightFoot -20.414306 -23.986377 19.476459
RightToeBase 22.353697 -0.000000 -0.000000
661
root 19.726776 35.748852 -22.153868 -166.880904 -0.890376 -178.729997
Spine -26.618212 -4.593870 3.396117
Head 17.431615 -4.489662 17.835370
LeftShoulder -28.651320 -68.079079 84.369802
LeftArm 65.363107 -47.501362 -26.487092
LeftForeArm -65.984292 -0.000000 104.395970
LeftHand 7.550016 -0.000000 0.584421
LeftHandThumb1 -26.253704 0.000000 33.147579
RightShoulder -15.277723 16.649569 -37.569516
RightArm 29.612325 75.163888 0.441519
RightForeArm 44.011263 -0.000000 88.918652
RightHand 7.038161 0.000000 12.313760
RightHandThumb1 -24.326973 -0.000000 -32.862282
LeftUpLeg -4.334166 9.278969 -0.481781
LeftLeg -6.875130 -0.000000 0.000000
LeftFoot -19.440078 25.702855 -15.436225
LeftToeBase 24.990943 -0.000000 -0.000000
RightUpLeg -4.973169 -5.836080 0.991230
RightLeg -3.593390 -0.000000 0.000000
RightFoot -20.420588 -24.048570 19.406620
RightToeBase 22.397297 -0.000000 -0.000000
662
root 19.726431 35.748081 -22.153313 -166.875719 -0.916805 -178.719927
Spine -26.605742 -4.617957 3.382364
Head 17.430552 -4.497152 17.987552
LeftShoulder -28.726941 -68.150413 84.552040
LeftArm 65.542627 -47.364639 -26.631313
LeftForeArm -65.947260 -0.000000 104.395578
LeftHand 7.475090 -0.000000 0.416683
LeftHandThumb1 -26.253704 0.000000 33.147579
RightShoulder -15.349657 16.554170 -37.430599
RightArm 29.273917 75.145799 0.199653
RightForeArm 44.000982 -0.000000 89.070087
RightHand 6.981808 -0.000000 12.142558
RightHandThumb1 -24.326973 -0.000000 -32.862282
LeftUpLeg -4.344591 9.265048 -0.475174
LeftLeg -6.885397 -0.000000 0.000000
LeftFoot -19.440553 25.704342 -15.405815
LeftToeBase 24.934443 -0.000000 -0.000000
RightUpLeg -4.967835 -5.882919 1.009780
RightLeg -3.616810 -0.000000 0.000000
RightFoot -20.381096 -23.959943 19.480543
RightToeBase 22.277018 -0.000000 -0.000000
663
root 19.724414 35.747316 -22.151162 -166.863405 -0.935798 -178.721074
Spine -26.597267 -4.625767 3.351576
Head 17.421262 -4.529766 18.130316
LeftShoulder -28.836872 -68.250738 84.792197
LeftArm 65.570226 -47.210497 -26.624755
LeftForeArm -65.976895 -0.000000 104.432266
LeftHand 7.533701 -0.000000 0.309583
LeftHandThumb1 -26.253704 0.000000 33.147579
RightShoulder -15.467149 16.327752 -37.261002
RightArm 29.363773 75.255038 0.359760
RightForeArm 43.938950 -0.000000 89.181829
RightHand 6.900507 -0.000000 12.008752
RightHandThumb1 -24.326973 -0.000000 -32.862282
LeftUpLeg -4.367862 9.263734 -0.480137
LeftLeg -6.875285 -0.000000 0.000000
LeftFoot -19.443228 25.735127 -15.379257
LeftToeBase 25.010984 -0.000000 -0.000000
RightUpLeg -4.979841 -5.903972 1.009629
RightLeg -3.616340 -0.000000 0.000000
RightFoot -20.392360 -24.001577 19.391524
RightToeBase 22.477436 -0.000000 -0.000000
664
root 19.725768 35.746509 -22.148897 -166.853803 -0.957039 -178.700725
Spine -26.580053 -4.640585 3.340729
Head 17.396734 -4.536729 18.278885
LeftShoulder -28.937563 -68.329591 85.018261
LeftArm 65.561348 -47.075385 -26.552608
LeftForeArm -65.958971 -0.000000 104.457778
LeftHand 7.573436 0.000000 0.338444
LeftHandThumb1 -26.253704 0.000000 33.147579
RightShoulder -15.652496 15.946359 -37.123583
RightArm 29.919082 75.508611 1.112246
RightForeArm 43.833212 -0.000000 89.370559
RightHand 6.780979 -0.000000 11.847159
RightHandThumb1 -24.326973 -0.000000 -32.862282
LeftUpLeg -4.380663 9.238353 -0.448776
LeftLeg -6.870421 -0.000000 0.000000
LeftFoot -19.431278 25.714148 -15.318214
LeftToeBase 25.010111 -0.000000 -0.000000
RightUpLeg -4.990469 -5.946249 1.040579
RightLeg -3.618735 -0.000000 0.000000
RightFoot -20.382471 -23.969543 19.388957
RightToeBase 22.487000 -0.000000 -0.000000
665
root 19.725138 35.746294 -22.146444 -166.841156 -0.975994 -178.692679
Spine -26.572829 -4.650952 3.324335
Head 17.390407 -4.555943 18.393802
LeftShoulder -28.990569 -68.382455 85.173121
LeftArm 65.635347 -46.943519 -26.572478
LeftForeArm -65.933040 -0.000000 104.491576
LeftHand 7.543476 -0.000000 0.262943
LeftHandThumb1 -26.253704 0.000000 33.147579
RightShoulder -15.740052 15.833169 -36.981811
RightArm 29.797789 75.505034 1.038161
RightForeArm 43.722531 0.000000 89.474254
RightHand 6.712932 -0.000000 11.640784
RightHandThumb1 -24.326973 -0.000000 -32.862282
LeftUpLeg -4.403280 9.240259 -0.448479
LeftLeg -6.874188 -0.000000 0.000000
LeftFoot -19.440131 25.741096 -15.300445
LeftToeBase 25.070366 -0.000000 -0.000000
RightUpLeg -4.984866 -5.941657 1.046652
RightLeg -3.656776 -0.000000 0.000000
RightFoot -20.358149 -23.968730 19.423159
RightToeBase 22.409455 -0.000000 -0.000000
666
root 19.726191 35.745835 -22.144149 -166.825148 -0.994327 -178.676371
Spine -26.570693 -4.652773 3.312917
Head 17.382543 -4.600531 18.480580
LeftShoulder -29.007386 -68.428088 85.313644
LeftArm 65.590664 -46.863687 -26.467638
LeftForeArm -65.961494 -0.000000 104.543771
LeftHand 7.569130 -0.000000 0.192316
LeftHandThumb1 -26.253704 0.000000 33.147579
RightShoulder -15.826247 15.804567 -36.868913
RightArm 29.560773 75.423837 0.849297
RightForeArm 43.783094 0.000000 89.573510
RightHand 6.659845 -0.000000 11.529188
RightHandThumb1 -24.326973 -0.000000 -32.862282
LeftUpLeg -4.419908 9.225988 -0.431563
LeftLeg -6.887368 -0.000000 0.000000
LeftFoot -19.438348 25.755352 -15.287418
LeftToeBase 25.047164 -0.000000 -0.000000
RightUpLeg -4.994973 -5.950062 1.068237
RightLeg -3.672457 -0.000000 0.000000
RightFoot -20.338391 -23.926713 19.493166
RightToeBase 22.273310 -0.000000 -0.000000
667
root 19.725685 35.744949 -22.142492 -166.810656 -1.011548 -178.671543
Spine -26.574034 -4.667148 3.298743
Head 17.392949 -4.590576 18.568605
LeftShoulder -28.911508 -68.422982 85.316703
LeftArm 65.622611 -46.808511 -26.401529
LeftForeArm -65.887659 -0.000000 104.588474
LeftHand 7.558240 -0.000000 0.254174
LeftHandThumb1 -26.253704 0.000000 33.147579
RightShoulder -15.912293 15.788962 -36.761125
RightArm 29.547058 75.327051 0.867900
RightForeArm 43.777743 -0.000000 89.640587
RightHand 6.693684 -0.000000 11.393313
RightHandThumb1 -24.326973 -0.000000 -32.862282
LeftUpLeg -4.436274 9.224545 -0.428596
LeftLeg -6.893329 -0.000000 0.000000
LeftFoot -19.430885 25.749074 -15.247551
LeftToeBase 25.116369 -0.000000 -0.000000
RightUpLeg -5.001765 -5.967123 1.076462
RightLeg -3.684431 -0.000000 0.000000
RightFoot -20.346347 -23.961785 19.409174
RightToeBase 22.483026 -0.000000 -0.000000
668
root 19.725507 35.744323 -22.140861 -166.797257 -1.022407 -178.658858
Spine -26.578713 -4.665409 3.290874
Head 17.415468 -4.590246 18.639761
LeftShoulder -28.944894 -68.488628 85.462116
LeftArm 65.550555 -46.664549 -26.280599
LeftForeArm -65.913955 0.000000 104.648180
LeftHand 7.600732 -0.000000 0.193847
LeftHandThumb1 -26.253704 0.000000 33.147579
RightShoulder -15.968426 15.716144 -36.628517
RightArm 29.307998 75.284200 0.637604
RightForeArm 43.797995 -0.000000 89.705854
RightHand 6.619521 -0.000000 11.244128
RightHandThumb1 -24.326973 -0.000000 -32.862282
LeftUpLeg -4.449251 9.229998 -0.418978
LeftLeg -6.902821 -0.000000 0.000000
LeftFoot -19.417384 25.741964 -15.209826
LeftToeBase 25.081282 -0.000000 -0.000000
RightUpLeg -5.011114 -5.982897 1.091850
RightLeg -3.695962 -0.000000 0.000000
RightFoot -20.332076 -23.973251 19.382919
RightToeBase 22.522092 -0.000000 -0.000000
